# xmcd
#
# Track frame offsets: 
#        150
#        13365
#        22160
#        31100
#        42620
#        57085
#        64515
#        85515
#        99732
#        105957
#        131880
#        140202
#        154250
#        166670
#        179610
#
# Disc length: 2505 seconds
#
# Revision: 2
# Processed by: cddbd v1.5.1PL0 Copyright (c) Steve Scherf et al.
# Submitted via: ExactAudioCopy v0.95a5
#
DISCID=cb09c70f
DTITLE=Blind Willie McTell - Complete Library of Congress Recordings 1
DTITLE=940
DYEAR=1940
DGENRE=
TTITLE0=Just as Well Get Ready, You Got to Die
TTITLE1=Monologue on Accidents
TTITLE2=Boll Weevil
TTITLE3=Delia
TTITLE4=Dying Crapshooter's Blues
TTITLE5=Will Fox
TTITLE6=I Got to Cross the River Jordan
TTITLE7=Monologue on Old Songs
TTITLE8=Amazing Grace
TTITLE9=Monologue on History of the Blues-Monologue on Life as Maker o
TTITLE9=f Records-Monologue on Himself
TTITLE10=King Edward Blues
TTITLE11=Murderer's Home Blues
TTITLE12=Kill-It-Kid Rag
TTITLE13=Chainey
TTITLE14=I Got to Cross De River O'Jordan
EXTD=
EXTT0=
EXTT1=
EXTT2=
EXTT3=
EXTT4=
EXTT5=
EXTT6=
EXTT7=
EXTT8=
EXTT9=
EXTT10=
EXTT11=
EXTT12=
EXTT13=
EXTT14=
PLAYORDER=
